<svg version="1.1" xmlns="http://www.w3.org/2000/svg" style="display: block;" viewBox="300 300 1448 1448" width="1024" height="1024" preserveAspectRatio="none">
<path transform="translate(0,0)" fill="rgb(210,92,113)" d="M 0 0 L 2048 0 L 2048 2048 L 0 2048 L 0 0 z"/>
<path transform="translate(0,0)" fill="rgb(254,254,254)" d="M 782.357 599.415 C 783.57 599.372 784.785 599.345 786 599.333 L 1158.69 599.368 L 1265.92 599.35 C 1281.56 599.351 1297.35 599.271 1312.82 599.636 C 1354.93 600.629 1391.69 625.538 1411.34 662.448 C 1428.22 694.167 1424.96 731.857 1424.86 766.878 C 1360.95 765.9 1295 766.781 1230.91 766.69 L 1230.8 1151.1 L 1230.83 1272.51 C 1230.83 1286.99 1230.27 1302.7 1230.89 1317.06 C 1233.5 1377.62 1201.54 1427.22 1141.74 1445.25 C 1130.63 1448.17 1121.09 1449.04 1109.55 1449.12 L 763.069 1449.1 L 665.412 1449.13 C 645.708 1449.14 614.848 1450.1 596.811 1446.63 C 573.107 1441.86 551.376 1430.1 534.419 1412.87 C 492.838 1371.22 499.419 1320.51 499.405 1266.25 L 669.382 1266.2 L 669.288 874.436 L 669.254 766.048 C 669.254 750.852 669.469 735.493 669.438 720.314 C 669.3 653.879 714.643 602.929 782.357 599.415 z"/>
<path transform="translate(0,0)" fill="rgb(210,92,113)" d="M 785.819 638.476 L 1079 638.51 C 1125.75 638.524 1174.12 637.829 1220.73 638.761 C 1186.95 680.869 1191.68 709.523 1191.76 760.287 L 1191.84 860.615 L 1191.73 1226.93 L 1191.9 1295.9 C 1191.93 1310.39 1192.57 1325.85 1190.94 1340.17 C 1187.55 1369.96 1167.27 1393.27 1140.26 1404.47 C 1096.68 1418.38 1054.14 1402.47 1035.56 1358.88 C 1028.74 1342.86 1029.37 1324.38 1029.24 1307.26 L 1029.01 1266.24 L 708.921 1266.52 L 708.815 870.771 L 708.82 759.596 C 708.777 725.603 703.627 689.844 729.328 663.186 C 745.561 646.349 762.804 639.544 785.819 638.476 z"/>
<path transform="translate(0,0)" fill="rgb(254,254,254)" d="M 754.724 1084.46 C 772.565 1085.19 791.048 1085.08 808.92 1084.9 C 921.157 1083.8 1033.81 1086.31 1146 1084.62 C 1145.97 1096.7 1146.51 1113.19 1145.66 1124.87 C 1015.7 1124.09 884.151 1126.32 754.409 1124.51 C 754.768 1111.2 754.217 1097.9 754.724 1084.46 z"/>
<path transform="translate(0,0)" fill="rgb(254,254,254)" d="M 754.684 1004.83 L 1145.94 1004.68 C 1145.97 1010.84 1146.93 1041.29 1144.96 1044.45 L 754.402 1044.59 L 754.684 1004.83 z"/>
<path transform="translate(0,0)" fill="rgb(254,254,254)" d="M 754.216 1164.85 L 1145.98 1164.78 C 1146.06 1171.74 1146.79 1198.82 1145.14 1203.83 L 1142.75 1204.52 L 754.375 1204.7 C 754.008 1191.79 754.235 1177.84 754.216 1164.85 z"/>
<path transform="translate(0,0)" fill="rgb(254,254,254)" d="M 839.104 924.681 L 1146 924.521 L 1145.94 964.903 L 839.029 964.885 L 839.104 924.681 z"/>
<path transform="translate(0,0)" fill="rgb(254,254,254)" d="M 924.516 844.362 L 1145.91 844.547 L 1146.05 883.922 C 1141.36 885.064 1099.56 884.217 1090.99 884.395 C 1036.68 885.519 978.743 882.645 924.708 884.739 C 924.785 871.351 924.592 857.767 924.516 844.362 z"/>
<path transform="translate(0,0)" fill="rgb(254,254,254)" d="M 1009.67 764.481 C 1054.83 763.773 1100.56 764.68 1145.91 764.218 C 1146.03 777.052 1146.42 791.774 1145.75 804.446 C 1102.7 805.706 1053.12 804.352 1009.5 804.429 C 1009.87 791.549 1009.63 777.458 1009.67 764.481 z"/>
<path transform="translate(0,0)" fill="rgb(254,254,254)" d="M 1075.81 684.23 L 1146 684.457 L 1146.07 724.198 L 1075.96 724.179 L 1075.81 684.23 z"/>
<path transform="translate(0,0)" fill="rgb(210,92,113)" d="M 538.869 1305.92 L 990.384 1305.62 C 989.426 1352.56 992.912 1372.52 1021.83 1409.75 L 636.559 1409.8 C 606.595 1409.73 584.6 1407.96 562.1 1385.19 C 538.767 1361.57 538.639 1336.54 538.869 1305.92 z"/>
<path transform="translate(0,0)" fill="rgb(210,92,113)" d="M 1296.95 639.274 C 1323.13 637.096 1344.1 642.439 1363.34 661.587 C 1383.06 681.201 1385.43 700.625 1385.49 727.133 C 1364.16 727.339 1342.83 727.415 1321.5 727.361 L 1230.78 727.263 C 1230.7 707.06 1231.73 690.123 1243.75 672.889 C 1257.5 653.18 1273.86 643.625 1296.95 639.274 z"/>
<path transform="translate(0,0)" fill="rgb(254,254,254)" d="M 1512.63 805.429 C 1523.53 804.506 1537.02 805.634 1548.04 806.436 L 1548.03 935.247 C 1526 933.595 1507.89 931.977 1485.59 934.527 C 1337.19 951.501 1355 1107.22 1354.99 1215.3 L 1355 1449.02 L 1210.94 1448.89 C 1223.63 1437.91 1230.29 1430.31 1240.07 1416.92 C 1253.27 1396.74 1261.76 1373.85 1264.91 1349.95 C 1267.49 1330.51 1266.53 1298.34 1266.52 1277.7 L 1266.51 1161.02 L 1266.49 952.342 C 1266.56 907.161 1267.28 860.013 1266.27 815.023 L 1350.71 815.1 C 1351.4 847.077 1352.57 879.042 1354.22 910.985 C 1386.77 845.055 1439.66 810.357 1512.63 805.429 z"/>
</svg>
