<svg version="1.1" xmlns="http://www.w3.org/2000/svg" style="display: block;" viewBox="0 0 2048 2048" width="2048" height="2048" preserveAspectRatio="none">
<path transform="translate(0,0)" fill="rgb(0,0,0)" d="M 0 0 L 2048 0 L 2048 990.635 L 2048 1026.65 L 2048 1102.47 L 2048 1137.63 L 2048 2048 L 1617.76 2048 L 429.974 2048 L 0 2048 L 0 1137.63 L 0 1102.47 L 0 1026.42 L 0 990.325 L 0 0 z"/>
<path transform="translate(0,0)" fill="rgb(202,116,124)" d="M 0 0 L 2048 0 L 2048 990.635 C 2017.85 1006.38 1992.55 1016.83 1960.91 1028.49 C 1836.12 822.929 1765.43 582.73 1726.34 346.619 C 1723.67 330.505 1721.79 314.445 1718.67 298.368 C 1717.88 311.929 1719.23 336.34 1719.91 350.109 C 1721.59 387.144 1724.64 424.104 1729.08 460.912 C 1754.89 670.817 1807.72 855 1916.68 1038.58 C 1896.11 1042.69 1877.08 1044.12 1856.25 1044.87 C 1855.62 1044.33 1855.01 1043.77 1854.4 1043.21 C 1834.53 1024.79 1798.72 979.781 1781.81 957.887 C 1633.54 765.945 1538.45 528.516 1492.06 291.377 C 1485.64 259.217 1480.18 226.872 1475.69 194.387 C 1473.23 177.06 1470.29 157.664 1469.54 140.274 C 1462.58 145.794 1451.66 156.554 1444.59 162.886 C 1430.59 175.433 1415.99 187.306 1400.86 198.464 C 1300.35 272.154 1180.62 315.084 1056.19 322.043 C 904.339 330.706 747.107 278.135 628.451 183.78 C 611.394 170.217 595.246 155.361 578.992 140.838 C 574.763 188.704 564.939 247.856 555.497 295.198 C 510.282 521.909 422.151 746.686 284.614 933.594 C 259.769 967.356 222.428 1015.05 192.298 1045.05 C 170.955 1044.52 152.266 1041.79 131.25 1038.48 C 234.131 871.723 295.12 665.208 317.9 471.693 C 322.322 434.126 327.951 379.717 328.116 341.524 C 327.064 332.091 330.448 326.292 326.193 319.369 C 295.081 522.761 240.783 723.433 151.924 909.659 C 133.551 948.164 110.493 992.57 87.3162 1028.35 C 58.5364 1017.72 27.0795 1004.85 0 990.325 L 0 0 z"/>
<path transform="translate(0,0)" fill="rgb(57,20,23)" d="M 328.989 295.218 C 330.283 303.917 329.718 332.703 328.116 341.524 C 327.064 332.091 330.448 326.292 326.193 319.369 C 326.675 311.289 328.122 303.281 328.989 295.218 z"/>
<path transform="translate(0,0)" fill="rgb(202,116,124)" d="M 5.68434e-14 1137.63 C 19.9185 1145.96 40.1465 1153.53 60.6401 1160.33 C 82.7688 1199.21 102.948 1248.34 118.791 1289.83 C 170.794 1426.04 199.098 1563.53 218.247 1707.59 L 219.394 1707.1 C 220.775 1699.77 219.349 1673.19 220.128 1662.89 C 220.261 1512.92 184.692 1307.91 115.783 1174.2 C 137.227 1177.23 159.79 1180.3 181.456 1180.96 C 203.681 1216.36 224.114 1249.77 243.354 1287.06 C 335.021 1464.74 391.135 1664.72 415.37 1862.81 C 422.099 1917.81 429.25 1992.43 429.974 2048 L 0 2048 L 0 1137.63 z"/>
<path transform="translate(0,0)" fill="rgb(57,20,23)" d="M 220.128 1662.89 C 221.501 1675.45 221.518 1712.39 220.24 1724.99 C 219.644 1720.18 218.429 1712.16 218.247 1707.59 L 219.394 1707.1 C 220.775 1699.77 219.349 1673.19 220.128 1662.89 z"/>
<path transform="translate(0,0)" fill="rgb(202,116,124)" d="M 1987.76 1160.39 C 2008.15 1153.64 2028.25 1146.05 2048 1137.63 L 2048 2048 L 1617.76 2048 C 1629.45 1746.05 1701.85 1437.23 1866.72 1180.9 C 1890.42 1179.45 1908.4 1177.47 1931.97 1174.19 C 1856.42 1341.55 1826.32 1511.18 1827.99 1694.55 C 1828.49 1698.41 1828.35 1701.16 1830.83 1704.02 C 1837.22 1666.39 1841.18 1628.62 1848.18 1589.6 C 1867.03 1481.59 1896.4 1375.68 1935.88 1273.4 C 1947.97 1242.34 1970.11 1189.03 1987.76 1160.39 z"/>
<path transform="translate(0,0)" fill="rgb(57,20,23)" d="M 1827.99 1694.55 C 1828.49 1698.41 1828.35 1701.16 1830.83 1704.02 C 1830.61 1709.88 1829.36 1717.73 1828.58 1723.69 C 1827.72 1713.73 1827.79 1704.53 1827.99 1694.55 z"/>
<path transform="translate(0,0)" fill="rgb(202,116,124)" d="M 0 1026.42 C 45.1742 1049.05 83.7961 1064.11 133.991 1072.37 C 153.587 1076.8 175.525 1075.26 194.524 1081.11 C 201.247 1083.19 210.717 1095.39 211.832 1102.03 C 218.999 1144.71 188.404 1149.18 158.318 1146.14 C 101.979 1140.45 50.6571 1125.61 0 1102.47 L 0 1026.42 z"/>
<path transform="translate(0,0)" fill="rgb(202,116,124)" d="M 2048 1102.47 C 1998.39 1124.96 1951.34 1139.15 1896.12 1145.58 C 1862.98 1152.31 1826.61 1142.56 1836.82 1100.48 C 1843.64 1072.36 1889.94 1077.03 1913.3 1072.98 C 1963.6 1064.26 2002.29 1049.13 2048 1026.65 L 2048 1102.47 z"/>
<path transform="translate(0,0)" fill="rgb(229,151,157)" d="M 574.424 831.224 C 618.718 829.476 672.406 830.949 717.535 830.952 L 993.743 830.968 L 1308.6 830.961 C 1362.06 830.949 1415.54 830.844 1468.99 831.054 C 1480.41 831.099 1493.09 839.679 1496.83 850.567 C 1499.49 858.295 1499.05 867.506 1495.1 874.761 C 1489.87 884.379 1483.74 887.943 1473.56 890.876 C 1461.21 891.606 1442.87 891.11 1430.19 891.116 L 1347.27 891.125 L 1095.21 891.108 L 754.039 891.082 C 695.364 891.088 636.679 891.238 578.009 890.926 C 566.043 890.862 554.096 881.388 550.71 869.986 C 548.343 861.829 549.456 853.057 553.787 845.751 C 558.986 837.043 565.124 833.845 574.424 831.224 z"/>
<path transform="translate(0,0)" fill="rgb(229,151,157)" d="M 573.551 650.202 C 585.338 649.5 602.481 649.982 614.67 649.982 L 691.574 649.988 L 928.336 649.994 L 1289.61 649.951 C 1347.91 649.954 1406.35 649.855 1464.66 649.89 C 1470.21 650.101 1476.4 650.396 1481.5 652.759 C 1496.47 659.701 1502.77 679.638 1495.1 694.105 C 1490.64 702.514 1483.48 706.551 1474.68 709.494 C 1464.8 710.433 1447.68 709.999 1437.37 710.006 L 1372.5 710.01 L 1164.1 709.997 L 778.597 709.99 C 712.4 709.989 646.199 710.049 580.005 709.872 C 566.815 709.837 555.389 702.099 551.161 689.45 C 548.553 681.549 549.327 672.921 553.3 665.611 C 558.073 656.792 564.452 653.128 573.551 650.202 z"/>
<path transform="translate(0,0)" fill="rgb(229,151,157)" d="M 572.288 1013.18 C 582.384 1012.33 597.34 1012.75 607.674 1012.75 L 668.771 1012.77 L 864.055 1012.79 L 1212.8 1012.77 C 1272.54 1012.75 1332.28 1012.67 1392.02 1012.77 C 1406.56 1012.8 1418.29 1018.69 1423.02 1033.42 C 1425.46 1041.09 1424.77 1049.41 1421.08 1056.56 C 1416.25 1065.85 1410.16 1069.04 1400.95 1072.14 C 1367.73 1073.86 1321.87 1072.44 1287.91 1072.44 L 1068.1 1072.39 L 747.92 1072.45 C 692.54 1072.48 637.156 1072.58 581.779 1072.42 C 568.665 1072.38 556.617 1066.27 551.723 1053.52 C 548.75 1045.68 549.148 1036.96 552.823 1029.42 C 557.264 1020.25 563.18 1016.51 572.288 1013.18 z"/>
<path transform="translate(0,0)" fill="rgb(202,116,124)" d="M 572.25 1194.19 C 601.21 1192.72 639.802 1193.77 669.405 1193.78 L 847.282 1193.81 L 1121.2 1193.79 C 1166.49 1193.78 1211.84 1193.74 1257.13 1193.77 C 1261.62 1194.03 1268.32 1193.91 1272.39 1195.72 C 1288.81 1203.01 1295.69 1221.72 1287.43 1237.78 C 1282.49 1247.38 1277.8 1250.06 1268.22 1253.42 C 1259.85 1254.27 1245.14 1253.88 1236.2 1253.88 L 1181.87 1253.88 L 1003.54 1253.87 L 681.953 1253.86 C 648.91 1253.86 604.463 1254.63 570.498 1252.87 C 565.198 1252.6 554.783 1242.73 551.797 1235.91 C 548.484 1228.32 548.457 1219.69 551.722 1212.08 C 556.095 1201.76 562.583 1198.06 572.25 1194.19 z"/>
<path transform="translate(0,0)" fill="rgb(202,116,124)" d="M 575.395 1375.33 C 608.681 1374.52 644.737 1375.22 678.268 1375.21 L 878.311 1375.19 L 1038.75 1375.12 C 1068.02 1375.07 1097.29 1374.94 1126.56 1375.16 C 1140.87 1375.27 1152.11 1381.09 1156.91 1395.32 C 1159.76 1403.51 1158.96 1412.52 1154.72 1420.07 C 1149.64 1429.3 1142.77 1432.56 1133.11 1435.18 L 760.137 1435.18 L 643.261 1435.26 C 622.158 1435.3 600.838 1435.47 579.739 1435.13 C 574.674 1434.92 569.541 1434.39 565.065 1431.89 C 549.709 1423.33 544.458 1403.32 554.245 1388.53 C 559.761 1380.2 566.055 1377.48 575.395 1375.33 z"/>
<path transform="translate(0,0)" fill="rgb(202,116,124)" d="M 572.117 1557.37 C 586.304 1556.04 614.245 1556.85 629.189 1556.84 L 738.151 1556.85 L 916.339 1556.81 C 945.666 1556.8 998.072 1554.96 1028.88 1559.26 C 1033.87 1559.96 1041.92 1570.53 1043.99 1576.05 C 1046.96 1584.17 1046.61 1593.14 1043.01 1601 C 1038.99 1609.82 1031.48 1613.33 1023.06 1616.43 C 1013.21 1617.6 986.132 1616.93 974.806 1616.93 L 878.718 1616.93 C 780.973 1616.92 683.152 1616.96 585.408 1616.82 C 580.817 1616.5 573.947 1617.01 569.673 1615.33 C 552.782 1608.68 543.511 1589.78 552.737 1573.18 C 558.085 1563.56 561.82 1560.97 572.117 1557.37 z"/>
<path transform="translate(0,0)" fill="rgb(202,116,124)" d="M 1119.14 1557.26 C 1134.9 1556.31 1156.36 1556.89 1172.5 1556.88 L 1270.36 1556.87 L 1398.13 1556.82 C 1421.53 1556.81 1457.7 1555.06 1481.2 1559.26 C 1486.22 1560.15 1493.66 1569.6 1495.83 1574.77 C 1499.22 1582.72 1499.17 1591.71 1495.69 1599.61 C 1491.48 1609.21 1484.32 1613.14 1475.09 1616.49 C 1461.53 1617.58 1440.74 1616.98 1426.75 1616.97 L 1339.3 1616.93 L 1204.07 1616.98 C 1179.69 1616.99 1140.26 1618.49 1115.04 1614.88 C 1109.58 1614.1 1101 1604.3 1098.58 1598.62 C 1095.24 1590.72 1095.38 1581.78 1098.99 1573.99 C 1103.34 1564.5 1110.01 1560.76 1119.14 1557.26 z"/>
<path transform="translate(0,0)" fill="rgb(202,116,124)" d="M 1233.42 1375.26 C 1311.26 1373.97 1389.74 1375.51 1467.63 1375.38 C 1502.9 1375.32 1512.45 1424.03 1473.6 1435.07 C 1429.42 1436.41 1379.17 1435.18 1334.41 1435.21 L 1272.38 1435.24 C 1260.72 1435.25 1233.06 1436.87 1223.83 1431.63 C 1216.49 1427.38 1211.16 1420.36 1209.05 1412.14 C 1204.38 1393.88 1216.19 1379.76 1233.42 1375.26 z"/>
<path transform="translate(0,0)" fill="rgb(202,116,124)" d="M 1364.38 1194.2 C 1380.34 1192.92 1470.64 1191.79 1480.77 1196.25 C 1488.1 1199.49 1493.65 1205.69 1496.44 1213.17 C 1499.54 1221.29 1499.02 1230.35 1495.02 1238.07 C 1490.52 1246.89 1483.81 1250.4 1475.01 1253.44 C 1458.25 1254.74 1367.99 1255.79 1357.6 1250.89 C 1349.98 1247.3 1344.22 1239.92 1341.75 1231.96 C 1339.27 1223.97 1340.74 1216.64 1344.61 1209.37 C 1349.03 1201.05 1355.67 1197.06 1364.38 1194.2 z"/>
</svg>